HIERARCHY
ROOT Hips
{
	OFFSET -3.958830 18.904000 13.208200
	CHANNELS 6 Xposition Yposition Zposition Zrotation Yrotation Xrotation 
	JOINT LHipJoint
	{
		OFFSET 0.000000 0.000000 0.000000
		CHANNELS 3 Zrotation Yrotation Xrotation
		JOINT LeftUpLeg
		{
			OFFSET 1.800000 -1.400000 0.085000
			CHANNELS 3 Zrotation Yrotation Xrotation
			JOINT LeftLeg
			{
				OFFSET 2.215000 -6.000000 0.000000
				CHANNELS 3 Zrotation Yrotation Xrotation
				JOINT LeftFoot
				{
					OFFSET 2.500000 -6.900000 0.000000
					CHANNELS 3 Zrotation Yrotation Xrotation
					JOINT LeftToeBase
					{
						OFFSET 0.200000 -0.500000 1.950000
						CHANNELS 3 Zrotation Yrotation Xrotation
						End Site
						{
							OFFSET 0.000000 0.000000 0.000000
						}
					}
				}
			}
		}
	}
	JOINT RHipJoint
	{
		OFFSET 0.000000 0.000000 0.000000
		CHANNELS 3 Zrotation Yrotation Xrotation
		JOINT RightUpLeg
		{
			OFFSET -1.800000 -1.400000 0.085000
			CHANNELS 3 Zrotation Yrotation Xrotation
			JOINT RightLeg
			{
				OFFSET -2.215000 -6.000000 0.000000
				CHANNELS 3 Zrotation Yrotation Xrotation
				JOINT RightFoot
				{
					OFFSET -2.500000 -6.900000 0.000000
					CHANNELS 3 Zrotation Yrotation Xrotation
					JOINT RightToeBase
					{
						OFFSET -0.200000 -0.500000 1.950000
						CHANNELS 3 Zrotation Yrotation Xrotation
						End Site
						{
							OFFSET 0.000000 0.000000 0.000000
						}
					}
				}
			}
		}
	}
	JOINT LowerBack
	{
		OFFSET 0.000000 0.000000 0.000000
		CHANNELS 3 Zrotation Yrotation Xrotation
		JOINT Spine
		{
			OFFSET -0.087000 1.940000 -0.288900
			CHANNELS 3 Zrotation Yrotation Xrotation
			JOINT Spine1
			{
				OFFSET 0.000000 1.950000 0.060000
				CHANNELS 3 Zrotation Yrotation Xrotation
				JOINT Neck
				{
					OFFSET 0.000000 0.000000 0.000000
					CHANNELS 3 Zrotation Yrotation Xrotation
					JOINT Neck1
					{
						OFFSET 0.000000 1.600000 0.340000
						CHANNELS 3 Zrotation Yrotation Xrotation
						JOINT Head
						{
							OFFSET 0.000000 1.667000 -0.240000
							CHANNELS 3 Zrotation Yrotation Xrotation
							End Site
							{
								OFFSET 0.000000 0.000000 0.000000
							}
						}
					}
				}
				JOINT LeftShoulder
				{
					OFFSET 0.000000 0.000000 0.000000
					CHANNELS 3 Zrotation Yrotation Xrotation
					JOINT LeftArm
					{
						OFFSET 2.700000 1.550000 -0.730000
						CHANNELS 3 Zrotation Yrotation Xrotation
						JOINT LeftForeArm
						{
							OFFSET 5.450000 0.000000 0.000000
							CHANNELS 3 Zrotation Yrotation Xrotation
							JOINT LeftHand
							{
								OFFSET 3.450000 0.000000 0.000000
								CHANNELS 3 Zrotation Yrotation Xrotation
								JOINT LeftHandIndex1
								{
									OFFSET 0.750000 0.000000 0.000000
									CHANNELS 3 Zrotation Yrotation Xrotation
									End Site
									{
										OFFSET 0.000000 0.000000 0.000000
									}
								}
							}
						}
					}
				}
				JOINT RightShoulder
				{
					OFFSET 0.000000 0.000000 0.000000
					CHANNELS 3 Zrotation Yrotation Xrotation
					JOINT RightArm
					{
						OFFSET -2.700000 1.550000 -0.730000
						CHANNELS 3 Zrotation Yrotation Xrotation
						JOINT RightForeArm
						{
							OFFSET -5.450000 0.000000 0.000000
							CHANNELS 3 Zrotation Yrotation Xrotation
							JOINT RightHand
							{
								OFFSET -3.450000 0.000000 0.000000
								CHANNELS 3 Zrotation Yrotation Xrotation
								JOINT RightHandIndex1
								{
									OFFSET -0.750000 0.000000 0.000000
									CHANNELS 3 Zrotation Yrotation Xrotation
									End Site
									{
										OFFSET 0.000000 0.000000 0.000000
									}
								}
							}
						}
					}
				}
			}
		}
	}
}
MOTION
Frames: 13
Frame Time: 0.016667
-1.693630 18.166040 1.469150 -8.475556 22.130073 -18.338438 -14.801550 13.174447 2.049192 10.419319 2.217325 -18.418034 -2.336658 7.958946 28.103257 -0.869292 6.364277 2.613167 -0.756830 -1.232810 -0.863820 18.519611 -11.981583 3.245267 -1.450690 -0.137734 9.231967 7.608628 -8.680731 22.542330 -0.600037 -6.585018 2.369756 -0.456980 1.514230 0.268690 -5.174348 0.955076 -7.567247 11.105372 1.429082 40.199822 -14.485937 9.539754 13.660020 2.095692 -12.238532 -16.589669 -23.791146 13.743402 28.661065 4.769080 1.052310 2.541540 16.150080 -4.687927 6.558925 -16.504867 5.975148 -11.966555 111.011185 -20.114331 -40.725595 -4.732865 2.801781 0.668750 0.673960 -0.659550 0.073180 -19.096678 19.959543 12.264974 -0.306493 1.501897 -15.453647 -119.008879 32.121044 -65.611023 1.887396 -1.403032 -0.877720 0.826420 1.081400 -0.015510 
-1.722800 18.138510 1.449680 -7.737084 21.869552 -17.959232 -14.861405 13.283356 2.260930 10.757541 1.884132 -19.360999 -3.443009 8.586167 29.122881 -0.860320 6.655529 2.473205 -0.748820 -1.255920 -0.816870 18.438246 -11.833070 3.151091 -2.234571 0.210184 8.547550 7.774044 -8.805805 23.511455 -0.606965 -6.515446 2.379433 -0.477270 1.460680 0.247890 -4.949459 0.415356 -7.587532 9.443896 1.803902 41.347939 -13.775007 9.130957 11.868964 2.128925 -12.428180 -17.147532 -25.783052 14.901749 29.307770 5.494390 1.559910 1.703190 14.065911 -4.622287 6.461943 -15.250138 7.976728 -11.833699 111.537777 -19.596456 -39.416180 -4.665737 2.715001 0.765720 0.611010 -0.613510 0.054310 -17.048674 19.700085 13.071878 1.280411 0.382776 -13.305911 -129.023749 25.175790 -69.503345 1.755755 -1.521763 -0.905870 0.841810 1.082960 -0.056640 
-1.741590 18.113100 1.408960 -7.580766 20.761120 -18.324004 -14.856963 13.292326 2.340495 11.373850 1.832857 -19.619176 -3.976029 9.085852 30.147128 -0.874858 6.995367 2.345458 -0.796660 -1.349170 -0.826050 18.442030 -11.794482 3.102011 -2.273181 0.484397 8.269480 7.352334 -8.829934 24.805509 -0.596253 -6.566709 2.354867 -0.507900 1.486330 0.246860 -4.908364 0.305701 -7.584748 9.492312 1.471121 42.910786 -14.060546 8.782154 10.872350 2.284383 -12.546320 -17.235730 -26.423367 15.618825 28.289912 5.013830 2.341540 1.828490 14.088924 -3.368393 6.418100 -15.920430 8.576902 -11.500762 111.878186 -19.420969 -39.134171 -4.703896 2.667855 0.818250 0.616980 -0.633250 0.034000 -17.362260 18.445677 13.245927 3.983401 0.766665 -12.197355 -135.117130 18.959174 -68.040204 1.667511 -1.591882 -0.964520 0.863020 1.133750 -0.089040 
-1.745010 18.085680 1.343810 -8.353163 19.146734 -19.972854 -14.767922 13.167199 2.221514 12.406180 2.110822 -18.512257 -3.846966 9.266204 30.722456 -0.863971 7.227490 2.284320 -0.861380 -1.442390 -0.894900 18.552168 -11.903315 3.146634 -1.477506 0.611725 8.899309 6.900865 -8.903306 26.275817 -0.596542 -6.834171 2.278320 -0.532450 1.560950 0.270150 -5.129807 0.793841 -7.555628 11.718549 -0.188032 45.442697 -15.626369 8.168063 10.666145 2.311215 -12.631957 -16.787358 -25.233868 15.454401 25.182812 3.591300 3.001360 3.116420 17.041012 -0.740133 6.698085 -19.930330 7.104811 -11.137385 112.712354 -19.033283 -40.019017 -4.828905 2.755413 0.771880 0.688340 -0.714640 0.031780 -20.360972 16.092419 12.972533 8.418578 3.353836 -11.998852 -137.151661 13.621137 -62.630508 1.633694 -1.712205 -0.995030 0.840230 1.187920 -0.087860 
-1.758660 18.067150 1.285770 -8.645287 17.836615 -21.581080 -14.730697 13.174523 2.155836 13.193962 2.319735 -17.386595 -3.693731 9.386726 31.255989 -0.781208 7.383013 2.245009 -0.871300 -1.460370 -0.929820 18.587121 -11.938674 3.182381 -1.256907 0.757168 9.698127 6.813207 -9.048301 27.515885 -0.643116 -7.074191 2.191362 -0.553520 1.581710 0.323930 -5.181293 0.917083 -7.548840 12.674979 -1.165490 48.732351 -16.350265 8.024586 8.980872 2.128205 -12.400613 -16.578768 -24.270971 14.629284 23.896894 2.748720 2.810110 4.222850 18.806742 0.568337 7.053089 -20.886883 6.007278 -10.657176 111.999324 -18.600542 -39.117605 -4.900969 2.856558 0.719950 0.720370 -0.729630 0.054430 -21.758058 14.725914 12.423261 11.563524 3.029811 -13.151305 -136.885076 10.379374 -55.945241 1.646605 -1.896425 -0.954040 0.779190 1.186830 -0.061190 
-1.770920 18.057250 1.231170 -9.245459 16.643439 -22.561325 -14.704771 13.157582 2.144107 14.183225 2.430900 -17.095951 -3.700233 9.503128 31.655017 -0.648694 7.427773 2.261428 -0.850870 -1.376380 -0.962090 18.620082 -11.922742 3.203012 -0.736134 0.902447 9.709298 6.900458 -9.146067 28.659394 -0.674980 -7.210878 2.191127 -0.541630 1.590830 0.302920 -5.211177 0.951468 -7.563861 14.129614 -2.307464 50.511031 -16.852515 7.660401 7.455251 1.972588 -12.317194 -16.485678 -24.157012 14.092920 23.615986 2.018320 2.729630 5.850770 19.398290 0.790053 7.479125 -21.265365 5.225830 -10.372125 110.977602 -18.500237 -38.116752 -4.906425 2.889414 0.620360 0.743600 -0.740610 0.103040 -21.999471 14.053093 11.605846 12.699728 2.243243 -14.437583 -134.365282 9.802593 -50.871285 1.702893 -2.019601 -0.893700 0.762670 1.120510 -0.004890 
-1.790060 18.039790 1.199180 -9.247478 15.562540 -22.281837 -14.672708 13.052286 2.230599 14.905003 2.313475 -17.494218 -4.593812 9.845001 31.697612 -0.636628 7.568364 2.209689 -0.822940 -1.353890 -0.945940 18.658694 -11.936831 3.159854 -0.768374 1.277699 8.708329 6.963224 -9.233941 29.761959 -0.678651 -7.245569 2.186790 -0.526780 1.598130 0.305420 -5.260433 1.087776 -7.608363 14.609919 -2.522013 50.317719 -16.634619 7.392775 6.240447 1.091360 -12.099066 -15.878200 -23.813313 13.996592 24.396357 2.994380 2.068830 5.568540 19.431278 1.270104 7.328803 -20.311240 4.356116 -9.384453 110.072933 -19.242457 -37.698181 -4.906513 2.871707 0.623870 0.745110 -0.741960 0.115750 -20.483031 12.809446 10.626633 11.817891 2.262532 -14.451953 -131.365830 11.365537 -48.216516 1.718723 -1.966882 -0.891510 0.772720 1.106340 -0.005000 
-1.815380 18.026620 1.180400 -9.210015 14.639621 -21.039018 -14.659368 12.920669 2.400447 15.529085 2.022376 -18.959708 -5.641067 10.265369 31.929264 -0.578749 7.665250 2.096394 -0.782470 -1.267250 -0.907370 18.691233 -11.879137 3.081320 -0.607107 1.718423 6.728596 6.998755 -9.250317 30.981061 -0.685255 -7.154724 2.134082 -0.499350 1.513040 0.326520 -5.276653 1.085796 -7.661943 15.087814 -2.677027 47.785243 -16.391715 6.771866 6.372021 0.685822 -12.135598 -15.539232 -24.774543 14.742716 26.073449 4.043030 2.105310 4.541170 18.066106 0.799919 7.120619 -18.201508 4.637877 -8.921818 109.003615 -20.216109 -37.269268 -4.838736 2.875219 0.609320 0.684720 -0.665100 0.087470 -18.528928 12.337420 9.902559 9.439248 2.411704 -13.781877 -129.079468 13.533600 -47.628522 1.788419 -1.895175 -0.821640 0.725630 1.081480 0.016840 
-1.838950 18.010470 1.185520 -9.360935 14.292205 -18.838929 -14.691015 12.765797 2.720748 16.402934 1.518495 -21.650291 -7.145939 10.872493 32.197151 -0.609822 7.893070 1.946758 -0.745310 -1.232190 -0.867920 18.695121 -11.677614 2.966061 -0.372400 2.119091 4.052534 7.388307 -9.364211 31.619670 -0.662025 -6.964416 2.163535 -0.480790 1.456100 0.306400 -5.207040 0.802228 -7.760056 15.965178 -2.727073 43.335486 -16.307469 6.200531 6.389686 0.816902 -12.207261 -15.896945 -27.082319 15.731102 29.277269 5.245640 1.711150 4.344320 14.592901 -1.375309 6.917973 -13.812229 6.132688 -8.321865 108.088393 -21.727644 -37.229750 -4.729274 2.751234 0.677600 0.630740 -0.624800 0.064530 -15.359179 13.478436 9.862035 5.999789 0.295635 -13.028425 -128.627654 16.172659 -49.067918 1.752127 -1.795373 -0.826870 0.736420 1.082260 -0.011460 
-1.861930 18.000630 1.210830 -9.254119 14.645963 -15.554909 -14.792260 12.639267 3.211740 17.064175 0.678913 -25.464571 -8.910921 11.505105 32.353853 -0.724771 8.137082 1.765057 -0.648130 -1.154200 -0.789740 18.636718 -11.324417 2.799749 -0.667715 2.502780 0.612384 8.355729 -9.623302 31.588724 -0.647125 -6.645543 2.242784 -0.428290 1.356400 0.282970 -4.972447 0.116379 -7.904739 16.101168 -1.885221 37.322781 -15.375569 6.032482 6.032272 1.179670 -11.938348 -16.393173 -30.711831 17.282004 34.736488 7.211740 0.793180 2.394630 8.683725 -4.487828 6.553546 -7.216390 7.473687 -6.837360 106.967210 -23.864069 -37.081843 -4.554158 2.532035 0.842300 0.536330 -0.538860 0.059360 -10.275642 15.349782 9.911817 1.419208 -3.771102 -12.064567 -129.442257 18.326633 -49.510820 1.660799 -1.664292 -0.855690 0.776620 1.069270 -0.076600 
-1.882480 17.994250 1.224400 -9.242170 13.920592 -13.364058 -14.871075 12.549784 3.565598 17.993684 0.274517 -27.851186 -10.186083 12.079135 32.416910 -0.740510 8.398726 1.650300 -0.627870 -1.142230 -0.788280 18.597924 -11.049209 2.692702 -0.578922 2.794416 -1.839323 8.595557 -9.685440 31.889168 -0.631766 -6.461104 2.289229 -0.420140 1.356810 0.287040 -4.767865 -0.395375 -8.010868 16.312660 -1.157013 33.029187 -14.393878 6.075242 5.839074 1.473765 -11.509555 -16.790275 -32.228166 18.072946 37.901100 8.233270 0.101140 2.795890 5.505453 -6.276666 6.629532 -4.385513 7.376851 -5.638192 106.422768 -25.552830 -37.587045 -4.501749 2.409706 0.908290 0.516560 -0.504480 0.080730 -7.669571 16.476883 10.065881 -0.790507 -5.926478 -11.321835 -131.019045 18.575366 -49.255884 1.616859 -1.619513 -0.873660 0.810140 1.073500 -0.084670 
-1.910260 17.989530 1.230950 -9.015736 12.857820 -12.503776 -14.927421 12.534277 3.764329 18.874825 0.096826 -28.561720 -11.175885 12.564515 32.366390 -0.742050 8.617554 1.596889 -0.625940 -1.158540 -0.773070 18.559227 -10.898871 2.620662 -0.689961 2.789861 -2.836735 8.474298 -9.682907 32.167218 -0.606719 -6.389209 2.328254 -0.409980 1.372200 0.236720 -4.597654 -0.742929 -8.077634 15.798420 -0.673574 30.725643 -13.163986 6.025533 5.990899 1.481121 -11.189599 -16.655363 -31.759223 17.566910 39.365584 8.017690 -0.340590 3.915430 4.033056 -6.923984 6.574368 -3.234170 6.636271 -4.843227 105.867292 -26.697616 -37.986242 -4.477430 2.329993 0.928360 0.515070 -0.530610 0.101270 -6.264116 16.858458 10.004402 -1.598941 -6.340053 -11.026846 -132.112713 17.320048 -46.914999 1.595306 -1.622511 -0.927310 0.859740 1.062510 -0.108240 
-1.941060 17.988190 1.230530 -9.039426 11.686390 -12.511778 -14.966219 12.535393 3.872844 20.043600 0.107124 -28.290904 -12.033787 12.899711 32.035870 -0.727556 8.794503 1.548199 -0.619120 -1.170840 -0.748410 18.533466 -10.799767 2.584445 -0.489727 2.652936 -3.031006 8.199842 -9.676103 32.495241 -0.604400 -6.393514 2.326240 -0.407750 1.378790 0.233670 -4.472440 -0.972460 -8.129372 15.427122 -0.630195 29.940358 -12.056836 5.865894 6.143649 1.324631 -10.912856 -16.178133 -30.227537 16.222073 39.624275 7.342250 -0.770850 3.956200 3.751874 -6.769521 6.467716 -3.120884 5.498311 -4.339522 105.440485 -27.461250 -38.543142 -4.483199 2.311302 0.928110 0.522980 -0.544490 0.108060 -5.779176 16.499494 9.657881 -0.833019 -6.015975 -11.446957 -132.566226 14.590177 -41.896370 1.595454 -1.683817 -0.943520 0.866400 1.052700 -0.120570 
